<mxfile host="65bd71144e">
    <diagram id="kb6ERmdoE3fj__gCxbpV" name="Page-1">
        <mxGraphModel dx="1587" dy="1689" grid="1" gridSize="10" guides="1" tooltips="1" connect="1" arrows="1" fold="1" page="0" pageScale="1" pageWidth="827" pageHeight="1169" math="0" shadow="0">
            <root>
                <mxCell id="0"/>
                <mxCell id="1" parent="0"/>
                <object label="GetOut &amp;amp; Fasten &amp;amp; Fast &amp;amp; On" type="state" id="32">
                    <mxCell style="swimlane;rounded=1;whiteSpace=wrap;html=1;glass=0;sketch=0;startSize=23;" parent="1" vertex="1">
                        <mxGeometry x="15590" y="9200" width="210" height="95" as="geometry"/>
                    </mxCell>
                </object>
                <mxCell id="49" value="・降車状態&lt;br&gt;・シートベルト締まってる&lt;br&gt;・車は20km/h以上&lt;br&gt;・LEDはON" style="text;html=1;align=center;verticalAlign=middle;resizable=0;points=[];autosize=1;strokeColor=none;fillColor=none;" parent="32" vertex="1">
                    <mxGeometry x="25" y="30" width="160" height="60" as="geometry"/>
                </mxCell>
                <mxCell id="138" style="html=1;exitX=0.5;exitY=1;exitDx=0;exitDy=0;entryX=0.25;entryY=0;entryDx=0;entryDy=0;startArrow=none;" parent="1" source="139" target="34" edge="1">
                    <mxGeometry relative="1" as="geometry"/>
                </mxCell>
                <object label="&lt;font style=&quot;font-size: 18px&quot;&gt;GetOut &amp;amp; Fasten &amp;amp; Fast&lt;/font&gt;" type="state" id="33">
                    <mxCell style="swimlane;rounded=1;whiteSpace=wrap;html=1;glass=0;sketch=0;startSize=23;" parent="1" vertex="1">
                        <mxGeometry x="440" y="-232.5" width="210" height="100" as="geometry"/>
                    </mxCell>
                </object>
                <mxCell id="50" value="・降車状態&lt;br&gt;・シートベルト締まってる&lt;br&gt;・車は20km/h以上" style="text;html=1;align=center;verticalAlign=middle;resizable=0;points=[];autosize=1;strokeColor=none;fillColor=none;" parent="33" vertex="1">
                    <mxGeometry x="25" y="35" width="160" height="50" as="geometry"/>
                </mxCell>
                <mxCell id="165" style="html=1;exitX=0.75;exitY=0;exitDx=0;exitDy=0;entryX=0.5;entryY=1;entryDx=0;entryDy=0;endArrow=none;endFill=0;" parent="1" source="34" target="149" edge="1">
                    <mxGeometry relative="1" as="geometry"/>
                </mxCell>
                <mxCell id="166" style="edgeStyle=orthogonalEdgeStyle;html=1;entryX=0;entryY=0.75;entryDx=0;entryDy=0;startArrow=none;startFill=1;endArrow=none;endFill=0;curved=1;exitX=1;exitY=0.5;exitDx=0;exitDy=0;" parent="1" source="167" target="44" edge="1">
                    <mxGeometry relative="1" as="geometry">
                        <mxPoint x="808.3000000000002" y="201.31999999999994" as="sourcePoint"/>
                    </mxGeometry>
                </mxCell>
                <mxCell id="173" style="edgeStyle=orthogonalEdgeStyle;html=1;exitX=0;exitY=0.5;exitDx=0;exitDy=0;entryX=1;entryY=0.25;entryDx=0;entryDy=0;startArrow=none;startFill=1;endArrow=none;endFill=0;curved=1;" parent="1" source="174" target="34" edge="1">
                    <mxGeometry relative="1" as="geometry"/>
                </mxCell>
                <object label="&lt;font style=&quot;font-size: 18px&quot;&gt;GetOut &amp;amp; Fasten &amp;amp; Slow&lt;/font&gt;" type="state" id="34">
                    <mxCell style="swimlane;rounded=1;whiteSpace=wrap;html=1;glass=0;sketch=0;startSize=23;" parent="1" vertex="1">
                        <mxGeometry x="440" y="20" width="210" height="100" as="geometry"/>
                    </mxCell>
                </object>
                <mxCell id="51" value="・降車状態&lt;br&gt;・シートベルト締まってる&lt;br&gt;・車は20km/h以下" style="text;html=1;align=center;verticalAlign=middle;resizable=0;points=[];autosize=1;strokeColor=none;fillColor=none;" parent="34" vertex="1">
                    <mxGeometry x="30" y="35" width="160" height="50" as="geometry"/>
                </mxCell>
                <mxCell id="94" style="html=1;exitX=0.5;exitY=1;exitDx=0;exitDy=0;entryX=0.75;entryY=0;entryDx=0;entryDy=0;startArrow=none;edgeStyle=orthogonalEdgeStyle;curved=1;" parent="1" source="95" target="38" edge="1">
                    <mxGeometry relative="1" as="geometry">
                        <mxPoint x="-90" y="-19.999999999999773" as="sourcePoint"/>
                    </mxGeometry>
                </mxCell>
                <mxCell id="121" style="html=1;exitX=0.5;exitY=0;exitDx=0;exitDy=0;startArrow=none;entryX=0;entryY=0.5;entryDx=0;entryDy=0;edgeStyle=orthogonalEdgeStyle;curved=1;" parent="1" source="122" target="43" edge="1">
                    <mxGeometry relative="1" as="geometry">
                        <mxPoint x="-20" y="-390" as="targetPoint"/>
                    </mxGeometry>
                </mxCell>
                <mxCell id="143" style="edgeStyle=none;html=1;exitX=1;exitY=0.5;exitDx=0;exitDy=0;entryX=0;entryY=0.75;entryDx=0;entryDy=0;startArrow=none;" parent="1" source="144" target="41" edge="1">
                    <mxGeometry relative="1" as="geometry"/>
                </mxCell>
                <object label="&lt;font style=&quot;font-size: 18px&quot;&gt;GetIn &amp;amp; Fasten &amp;amp; Fast&lt;/font&gt;" type="state" id="36">
                    <mxCell style="swimlane;rounded=1;whiteSpace=wrap;html=1;glass=0;sketch=0;startSize=23;" parent="1" vertex="1">
                        <mxGeometry x="-175" y="-350" width="210" height="100" as="geometry"/>
                    </mxCell>
                </object>
                <mxCell id="62" value="・乗車状態&lt;br&gt;・シートベルト締まってる&lt;br&gt;・車は20km/h以上" style="text;html=1;align=center;verticalAlign=middle;resizable=0;points=[];autosize=1;strokeColor=none;fillColor=none;" parent="36" vertex="1">
                    <mxGeometry x="25" y="35" width="160" height="50" as="geometry"/>
                </mxCell>
                <mxCell id="157" style="edgeStyle=orthogonalEdgeStyle;html=1;exitX=1;exitY=0.5;exitDx=0;exitDy=0;entryX=0.75;entryY=1;entryDx=0;entryDy=0;startArrow=none;" parent="1" source="158" target="47" edge="1">
                    <mxGeometry relative="1" as="geometry"/>
                </mxCell>
                <object label="&lt;font style=&quot;font-size: 18px&quot;&gt;GetIn &amp;amp; UnFasten &amp;amp; Fast&lt;/font&gt;" type="state" id="38">
                    <mxCell style="swimlane;rounded=1;whiteSpace=wrap;html=1;glass=0;sketch=0;startSize=23;" parent="1" vertex="1">
                        <mxGeometry x="-175" y="370" width="225" height="107.5" as="geometry"/>
                    </mxCell>
                </object>
                <mxCell id="59" value="・乗車状態&lt;br&gt;・シートベルト外してる&lt;br&gt;・車は20km/h以上" style="text;html=1;align=center;verticalAlign=middle;resizable=0;points=[];autosize=1;strokeColor=none;fillColor=none;" parent="38" vertex="1">
                    <mxGeometry x="30" y="35" width="150" height="50" as="geometry"/>
                </mxCell>
                <mxCell id="77" style="html=1;exitX=0.5;exitY=0;exitDx=0;exitDy=0;entryX=0.25;entryY=1;entryDx=0;entryDy=0;startArrow=none;edgeStyle=orthogonalEdgeStyle;curved=1;" parent="1" source="96" target="36" edge="1">
                    <mxGeometry relative="1" as="geometry"/>
                </mxCell>
                <mxCell id="76" style="html=1;exitX=0;exitY=0.5;exitDx=0;exitDy=0;entryX=1;entryY=0.25;entryDx=0;entryDy=0;startArrow=none;" parent="1" source="97" target="36" edge="1">
                    <mxGeometry relative="1" as="geometry">
                        <mxPoint x="555" y="170" as="targetPoint"/>
                    </mxGeometry>
                </mxCell>
                <mxCell id="151" style="html=1;entryX=0;entryY=0.5;entryDx=0;entryDy=0;startArrow=none;exitX=0.5;exitY=1;exitDx=0;exitDy=0;edgeStyle=orthogonalEdgeStyle;" parent="1" source="152" target="47" edge="1">
                    <mxGeometry relative="1" as="geometry">
                        <mxPoint x="950" y="40" as="sourcePoint"/>
                    </mxGeometry>
                </mxCell>
                <mxCell id="163" style="html=1;exitX=1;exitY=0.5;exitDx=0;exitDy=0;entryX=0;entryY=0.5;entryDx=0;entryDy=0;endArrow=none;endFill=0;" parent="1" source="41" target="110" edge="1">
                    <mxGeometry relative="1" as="geometry"/>
                </mxCell>
                <object label="&lt;font style=&quot;font-size: 18px&quot;&gt;GetIn &amp;amp; Fasten &amp;amp; Slow&lt;/font&gt;" type="state" id="41">
                    <mxCell style="swimlane;rounded=1;whiteSpace=wrap;html=1;glass=0;sketch=0;startSize=23;" parent="1" vertex="1">
                        <mxGeometry x="190" y="-350" width="210" height="100" as="geometry"/>
                    </mxCell>
                </object>
                <mxCell id="64" value="・乗車状態&lt;br&gt;・シートベルト締まってる&lt;br&gt;・車は20km/h以下" style="text;html=1;align=center;verticalAlign=middle;resizable=0;points=[];autosize=1;strokeColor=none;fillColor=none;" parent="41" vertex="1">
                    <mxGeometry x="25" y="35" width="160" height="50" as="geometry"/>
                </mxCell>
                <object label="&lt;font style=&quot;font-size: 18px&quot;&gt;GetOut &amp;amp; UnFasten &amp;amp; Fast&lt;/font&gt;" type="state" id="43">
                    <mxCell style="swimlane;rounded=1;whiteSpace=wrap;html=1;glass=0;sketch=0;startSize=30;" parent="1" vertex="1">
                        <mxGeometry x="-180" y="-500" width="230" height="100" as="geometry"/>
                    </mxCell>
                </object>
                <mxCell id="54" value="・降車状態&lt;br&gt;・シートベルト外してる&lt;br&gt;・車は20km/h以上" style="text;html=1;align=center;verticalAlign=middle;resizable=0;points=[];autosize=1;strokeColor=none;fillColor=none;" parent="43" vertex="1">
                    <mxGeometry x="40" y="40" width="150" height="50" as="geometry"/>
                </mxCell>
                <mxCell id="69" style="html=1;entryX=0.25;entryY=0;entryDx=0;entryDy=0;exitX=0.5;exitY=1;exitDx=0;exitDy=0;startArrow=none;" parent="1" source="107" target="47" edge="1">
                    <mxGeometry relative="1" as="geometry">
                        <mxPoint x="925" y="210" as="sourcePoint"/>
                    </mxGeometry>
                </mxCell>
                <mxCell id="154" style="edgeStyle=orthogonalEdgeStyle;html=1;exitX=0;exitY=0.5;exitDx=0;exitDy=0;entryX=1;entryY=0.25;entryDx=0;entryDy=0;curved=1;startArrow=none;" parent="1" source="155" target="43" edge="1">
                    <mxGeometry relative="1" as="geometry">
                        <Array as="points"/>
                    </mxGeometry>
                </mxCell>
                <object label="&lt;font style=&quot;font-size: 18px&quot;&gt;GetOut &amp;amp; UnFasten &amp;amp; Slow&lt;/font&gt;" type="state" id="44">
                    <mxCell style="swimlane;rounded=1;whiteSpace=wrap;html=1;glass=0;sketch=0;startSize=23;" parent="1" vertex="1">
                        <mxGeometry x="875" y="20" width="235" height="100" as="geometry"/>
                    </mxCell>
                </object>
                <mxCell id="55" value="・降車状態&lt;br&gt;・シートベルト外してる&lt;br&gt;・車は20km/h以下" style="text;html=1;align=center;verticalAlign=middle;resizable=0;points=[];autosize=1;strokeColor=none;fillColor=none;" parent="44" vertex="1">
                    <mxGeometry x="30" y="35" width="150" height="50" as="geometry"/>
                </mxCell>
                <mxCell id="128" style="edgeStyle=orthogonalEdgeStyle;html=1;exitX=1;exitY=0.5;exitDx=0;exitDy=0;entryX=0.25;entryY=0;entryDx=0;entryDy=0;startArrow=none;" parent="1" source="129" target="44" edge="1">
                    <mxGeometry relative="1" as="geometry">
                        <mxPoint x="870" y="-400" as="targetPoint"/>
                    </mxGeometry>
                </mxCell>
                <mxCell id="70" style="html=1;exitX=0.5;exitY=0;exitDx=0;exitDy=0;entryX=0.25;entryY=1;entryDx=0;entryDy=0;startArrow=none;" parent="1" source="99" target="41" edge="1">
                    <mxGeometry relative="1" as="geometry"/>
                </mxCell>
                <mxCell id="80" style="html=1;exitX=0.5;exitY=0;exitDx=0;exitDy=0;entryX=0.75;entryY=1;entryDx=0;entryDy=0;startArrow=none;" parent="1" source="108" target="44" edge="1">
                    <mxGeometry relative="1" as="geometry"/>
                </mxCell>
                <mxCell id="100" style="html=1;exitX=0;exitY=0.75;exitDx=0;exitDy=0;entryX=1;entryY=0.25;entryDx=0;entryDy=0;startArrow=none;" parent="1" source="103" target="38" edge="1">
                    <mxGeometry relative="1" as="geometry"/>
                </mxCell>
                <object label="&lt;font style=&quot;font-size: 18px&quot;&gt;GetIn &amp;amp; UnFasten &amp;amp; Slow&lt;/font&gt;" type="state" id="47">
                    <mxCell style="swimlane;rounded=1;whiteSpace=wrap;html=1;glass=0;sketch=0;startSize=23;" parent="1" vertex="1">
                        <mxGeometry x="875" y="220" width="235" height="105" as="geometry"/>
                    </mxCell>
                </object>
                <mxCell id="58" value="・乗車状態&lt;br&gt;・シートベルト外してる&lt;br&gt;・車は20km/h以下" style="text;html=1;align=center;verticalAlign=middle;resizable=0;points=[];autosize=1;strokeColor=none;fillColor=none;" parent="47" vertex="1">
                    <mxGeometry x="30" y="35" width="150" height="50" as="geometry"/>
                </mxCell>
                <mxCell id="97" value="&lt;font style=&quot;font-size: 18px&quot;&gt;速く&lt;/font&gt;" style="text;html=1;strokeColor=none;fillColor=none;align=center;verticalAlign=middle;whiteSpace=wrap;rounded=0;" parent="1" vertex="1">
                    <mxGeometry x="75" y="-340" width="80" height="30" as="geometry"/>
                </mxCell>
                <mxCell id="98" value="" style="html=1;exitX=0;exitY=0.25;exitDx=0;exitDy=0;entryX=1;entryY=0.5;entryDx=0;entryDy=0;endArrow=none;" parent="1" source="41" target="97" edge="1">
                    <mxGeometry relative="1" as="geometry">
                        <mxPoint x="545" y="160" as="targetPoint"/>
                        <mxPoint x="545" y="280" as="sourcePoint"/>
                    </mxGeometry>
                </mxCell>
                <mxCell id="95" value="&lt;font style=&quot;font-size: 18px&quot;&gt;シートベルトを外す&lt;/font&gt;" style="text;html=1;strokeColor=none;fillColor=none;align=center;verticalAlign=middle;whiteSpace=wrap;rounded=0;" parent="1" vertex="1">
                    <mxGeometry x="-45" y="-10" width="135" height="30" as="geometry"/>
                </mxCell>
                <mxCell id="101" value="" style="html=1;exitX=0.75;exitY=1;exitDx=0;exitDy=0;endArrow=none;entryX=0.5;entryY=0;entryDx=0;entryDy=0;edgeStyle=orthogonalEdgeStyle;curved=1;" parent="1" source="36" target="95" edge="1">
                    <mxGeometry relative="1" as="geometry">
                        <mxPoint x="160" y="45" as="sourcePoint"/>
                        <mxPoint x="10" y="-9.999999999999773" as="targetPoint"/>
                    </mxGeometry>
                </mxCell>
                <mxCell id="96" value="&lt;font style=&quot;font-size: 18px&quot;&gt;シートベルトを締める&lt;/font&gt;" style="text;html=1;strokeColor=none;fillColor=none;align=center;verticalAlign=middle;whiteSpace=wrap;rounded=0;" parent="1" vertex="1">
                    <mxGeometry x="-220" y="-10" width="130" height="30" as="geometry"/>
                </mxCell>
                <mxCell id="102" value="" style="html=1;exitX=0.25;exitY=0;exitDx=0;exitDy=0;entryX=0.5;entryY=1;entryDx=0;entryDy=0;endArrow=none;edgeStyle=orthogonalEdgeStyle;curved=1;" parent="1" source="38" target="96" edge="1">
                    <mxGeometry relative="1" as="geometry">
                        <mxPoint x="-245" y="60" as="sourcePoint"/>
                        <mxPoint x="112.5" y="-45" as="targetPoint"/>
                    </mxGeometry>
                </mxCell>
                <mxCell id="103" value="&lt;font style=&quot;font-size: 18px&quot;&gt;速く&lt;/font&gt;" style="text;html=1;strokeColor=none;fillColor=none;align=center;verticalAlign=middle;whiteSpace=wrap;rounded=0;" parent="1" vertex="1">
                    <mxGeometry x="605" y="377.5" width="120" height="30" as="geometry"/>
                </mxCell>
                <mxCell id="104" value="" style="edgeStyle=orthogonalEdgeStyle;html=1;exitX=0.5;exitY=1;exitDx=0;exitDy=0;entryX=1;entryY=0.75;entryDx=0;entryDy=0;endArrow=none;" parent="1" source="47" target="103" edge="1">
                    <mxGeometry relative="1" as="geometry">
                        <mxPoint x="760" y="106.25" as="sourcePoint"/>
                        <mxPoint x="130.00000000000023" y="170" as="targetPoint"/>
                    </mxGeometry>
                </mxCell>
                <mxCell id="99" value="&lt;font style=&quot;font-size: 18px&quot;&gt;シートベルトを締める&lt;/font&gt;" style="text;html=1;strokeColor=none;fillColor=none;align=center;verticalAlign=middle;whiteSpace=wrap;rounded=0;" parent="1" vertex="1">
                    <mxGeometry x="170" y="-82.5" width="140" height="30" as="geometry"/>
                </mxCell>
                <mxCell id="106" value="" style="html=1;exitX=0;exitY=0.75;exitDx=0;exitDy=0;entryX=0.5;entryY=1;entryDx=0;entryDy=0;endArrow=none;edgeStyle=orthogonalEdgeStyle;" parent="1" source="47" target="99" edge="1">
                    <mxGeometry relative="1" as="geometry">
                        <mxPoint x="865" y="130" as="sourcePoint"/>
                        <mxPoint x="550" y="299.9999999999998" as="targetPoint"/>
                    </mxGeometry>
                </mxCell>
                <mxCell id="164" style="edgeStyle=orthogonalEdgeStyle;curved=1;html=1;exitX=0.5;exitY=1;exitDx=0;exitDy=0;entryX=0.5;entryY=0;entryDx=0;entryDy=0;" parent="1" source="110" target="33" edge="1">
                    <mxGeometry relative="1" as="geometry"/>
                </mxCell>
                <mxCell id="110" value="&lt;font style=&quot;font-size: 14px&quot;&gt;シートベルトをすり抜けて車から降りる&lt;/font&gt;" style="text;html=1;strokeColor=none;fillColor=none;align=center;verticalAlign=middle;whiteSpace=wrap;rounded=0;" parent="1" vertex="1">
                    <mxGeometry x="467.5" y="-315" width="182.5" height="30" as="geometry"/>
                </mxCell>
                <mxCell id="107" value="&lt;font style=&quot;font-size: 18px&quot;&gt;車に乗る&lt;/font&gt;" style="text;html=1;strokeColor=none;fillColor=none;align=center;verticalAlign=middle;whiteSpace=wrap;rounded=0;" parent="1" vertex="1">
                    <mxGeometry x="880" y="160" width="100" height="30" as="geometry"/>
                </mxCell>
                <mxCell id="118" value="" style="html=1;entryX=0.5;entryY=0;entryDx=0;entryDy=0;exitX=0.25;exitY=1;exitDx=0;exitDy=0;endArrow=none;" parent="1" source="44" target="107" edge="1">
                    <mxGeometry relative="1" as="geometry">
                        <mxPoint x="927.5" y="230" as="sourcePoint"/>
                        <mxPoint x="927.5" y="295" as="targetPoint"/>
                    </mxGeometry>
                </mxCell>
                <mxCell id="108" value="&lt;font style=&quot;font-size: 18px&quot;&gt;車から降りる&lt;/font&gt;" style="text;html=1;strokeColor=none;fillColor=none;align=center;verticalAlign=middle;whiteSpace=wrap;rounded=0;" parent="1" vertex="1">
                    <mxGeometry x="1000" y="160" width="110" height="30" as="geometry"/>
                </mxCell>
                <mxCell id="119" value="" style="html=1;exitX=0.75;exitY=0;exitDx=0;exitDy=0;entryX=0.5;entryY=1;entryDx=0;entryDy=0;endArrow=none;" parent="1" source="47" target="108" edge="1">
                    <mxGeometry relative="1" as="geometry">
                        <mxPoint x="1032.5" y="255" as="sourcePoint"/>
                        <mxPoint x="1032.5" y="130" as="targetPoint"/>
                    </mxGeometry>
                </mxCell>
                <mxCell id="122" value="&lt;font style=&quot;font-size: 18px&quot;&gt;車から降りる&lt;/font&gt;" style="text;html=1;strokeColor=none;fillColor=none;align=center;verticalAlign=middle;whiteSpace=wrap;rounded=0;" parent="1" vertex="1">
                    <mxGeometry x="-400" y="-122.5" width="165" height="30" as="geometry"/>
                </mxCell>
                <mxCell id="123" value="" style="edgeStyle=orthogonalEdgeStyle;html=1;exitX=0;exitY=0.5;exitDx=0;exitDy=0;entryX=0.5;entryY=1;entryDx=0;entryDy=0;endArrow=none;curved=1;" parent="1" source="38" target="122" edge="1">
                    <mxGeometry relative="1" as="geometry">
                        <mxPoint x="-59.99999999999977" y="-280" as="sourcePoint"/>
                        <mxPoint x="-124.99999999999977" y="-435" as="targetPoint"/>
                    </mxGeometry>
                </mxCell>
                <mxCell id="129" value="&lt;font style=&quot;font-size: 18px&quot;&gt;遅く&lt;/font&gt;" style="text;html=1;strokeColor=none;fillColor=none;align=center;verticalAlign=middle;whiteSpace=wrap;rounded=0;" parent="1" vertex="1">
                    <mxGeometry x="705" y="-450" width="110" height="30" as="geometry"/>
                </mxCell>
                <mxCell id="130" value="" style="edgeStyle=orthogonalEdgeStyle;html=1;exitX=1;exitY=0.75;exitDx=0;exitDy=0;entryX=0;entryY=0.5;entryDx=0;entryDy=0;endArrow=none;curved=1;" parent="1" source="43" target="129" edge="1">
                    <mxGeometry relative="1" as="geometry">
                        <mxPoint x="645" y="-385" as="sourcePoint"/>
                        <mxPoint x="875" y="-300" as="targetPoint"/>
                    </mxGeometry>
                </mxCell>
                <mxCell id="134" value="&lt;font style=&quot;font-size: 14px&quot;&gt;LEDの仕様を考えてしまってる&lt;br&gt;状態のみ考える，LEDをOFFにするかONにするかを後で考える&lt;br&gt;状態を見て，LEDをONにすべきかOFFにすべきか考える&lt;br&gt;LEDの状態は後で&lt;br&gt;環境の状態を8つで考える&lt;br&gt;要件に従って，〇秒後にLEDをONOFFにするかを考える&lt;br&gt;仕様は箇条書きで&lt;br&gt;&lt;br&gt;&lt;br&gt;&lt;br&gt;【岡村先生コメント　2022-0721】&lt;br&gt;色々仕様を考えて、そういう時はこの遷移が変なことになる、こういう場合はこの遷移が変なことになる、っていうのを挙げる&lt;br&gt;→「いろいろ考えた上でこういう仕様に決定しました」ということを論理的に伝えられればいい&lt;br&gt;&lt;br&gt;LEDのON・OFFとか、車からの乗り降りを何で感知するかなど&lt;br&gt;システムの仕様を決めるので、正解はない。&lt;br&gt;色々考えた上でこの仕様に決定したということが伝えられればいいし、それ伝えたらこっちのほうがいいんじゃ？ということが議論できるし。&lt;br&gt;とにかく色々考えよう、そして何を考えたかをまとめよう。&lt;br&gt;&lt;br&gt;その上でシステムの使用を決定して、システムの振る舞いを表したステートマシン図を作成しよう。&lt;/font&gt;" style="text;html=1;strokeColor=none;fillColor=none;align=left;verticalAlign=middle;whiteSpace=wrap;rounded=0;" parent="1" vertex="1">
                    <mxGeometry x="1335" y="-170" width="455" height="390" as="geometry"/>
                </mxCell>
                <mxCell id="139" value="&lt;font style=&quot;font-size: 18px&quot;&gt;20km/h以下&lt;/font&gt;" style="text;html=1;strokeColor=none;fillColor=none;align=center;verticalAlign=middle;whiteSpace=wrap;rounded=0;" parent="1" vertex="1">
                    <mxGeometry x="430" y="-77.5" width="110" height="30" as="geometry"/>
                </mxCell>
                <mxCell id="140" value="" style="html=1;exitX=0.25;exitY=1;exitDx=0;exitDy=0;entryX=0.5;entryY=0;entryDx=0;entryDy=0;endArrow=none;" parent="1" source="33" target="139" edge="1">
                    <mxGeometry relative="1" as="geometry">
                        <mxPoint x="545" y="-142.5" as="sourcePoint"/>
                        <mxPoint x="545" y="-42.5" as="targetPoint"/>
                    </mxGeometry>
                </mxCell>
                <mxCell id="144" value="&lt;font style=&quot;font-size: 18px&quot;&gt;遅く&lt;/font&gt;" style="text;html=1;strokeColor=none;fillColor=none;align=center;verticalAlign=middle;whiteSpace=wrap;rounded=0;" parent="1" vertex="1">
                    <mxGeometry x="75" y="-290" width="80" height="30" as="geometry"/>
                </mxCell>
                <mxCell id="145" value="" style="edgeStyle=none;html=1;exitX=1;exitY=0.75;exitDx=0;exitDy=0;entryX=0;entryY=0.5;entryDx=0;entryDy=0;endArrow=none;" parent="1" source="36" target="144" edge="1">
                    <mxGeometry relative="1" as="geometry">
                        <mxPoint x="190" y="-200" as="sourcePoint"/>
                        <mxPoint x="420" y="65" as="targetPoint"/>
                    </mxGeometry>
                </mxCell>
                <mxCell id="149" value="&lt;font style=&quot;font-size: 18px&quot;&gt;20km/h以上&lt;/font&gt;" style="text;html=1;strokeColor=none;fillColor=none;align=center;verticalAlign=middle;whiteSpace=wrap;rounded=0;" parent="1" vertex="1">
                    <mxGeometry x="550" y="-77.5" width="110" height="30" as="geometry"/>
                </mxCell>
                <mxCell id="150" value="" style="html=1;exitX=0.75;exitY=1;exitDx=0;exitDy=0;entryX=0.5;entryY=0;entryDx=0;entryDy=0;endArrow=none;startArrow=classic;startFill=1;" parent="1" source="33" target="149" edge="1">
                    <mxGeometry relative="1" as="geometry">
                        <mxPoint x="622.5" y="-122.5" as="sourcePoint"/>
                        <mxPoint x="675" y="-32.5" as="targetPoint"/>
                    </mxGeometry>
                </mxCell>
                <mxCell id="152" value="&lt;font style=&quot;font-size: 18px&quot;&gt;シートベルトを外す&lt;/font&gt;" style="text;html=1;strokeColor=none;fillColor=none;align=center;verticalAlign=middle;whiteSpace=wrap;rounded=0;" parent="1" vertex="1">
                    <mxGeometry x="280" width="130" height="30" as="geometry"/>
                </mxCell>
                <mxCell id="153" value="" style="html=1;exitX=0.75;exitY=1;exitDx=0;exitDy=0;entryX=0.5;entryY=0;entryDx=0;entryDy=0;endArrow=none;" parent="1" source="41" target="152" edge="1">
                    <mxGeometry relative="1" as="geometry">
                        <mxPoint x="490" y="150" as="sourcePoint"/>
                        <mxPoint x="800" y="148.75" as="targetPoint"/>
                    </mxGeometry>
                </mxCell>
                <mxCell id="155" value="&lt;font style=&quot;font-size: 18px&quot;&gt;速く&lt;/font&gt;" style="text;html=1;strokeColor=none;fillColor=none;align=center;verticalAlign=middle;whiteSpace=wrap;rounded=0;" parent="1" vertex="1">
                    <mxGeometry x="725" y="-500" width="70" height="30" as="geometry"/>
                </mxCell>
                <mxCell id="156" value="" style="edgeStyle=orthogonalEdgeStyle;html=1;exitX=0.75;exitY=0;exitDx=0;exitDy=0;entryX=1;entryY=0.5;entryDx=0;entryDy=0;endArrow=none;" parent="1" source="44" target="155" edge="1">
                    <mxGeometry relative="1" as="geometry">
                        <mxPoint x="1007.5" y="-240" as="sourcePoint"/>
                        <mxPoint x="205" y="-470" as="targetPoint"/>
                    </mxGeometry>
                </mxCell>
                <mxCell id="158" value="&lt;font style=&quot;font-size: 18px&quot;&gt;遅く&lt;/font&gt;" style="text;html=1;strokeColor=none;fillColor=none;align=center;verticalAlign=middle;whiteSpace=wrap;rounded=0;" parent="1" vertex="1">
                    <mxGeometry x="645" y="437.5" width="70" height="30" as="geometry"/>
                </mxCell>
                <mxCell id="159" value="" style="edgeStyle=orthogonalEdgeStyle;html=1;exitX=1;exitY=0.75;exitDx=0;exitDy=0;entryX=0;entryY=0.5;entryDx=0;entryDy=0;endArrow=none;" parent="1" source="38" target="158" edge="1">
                    <mxGeometry relative="1" as="geometry">
                        <mxPoint x="210" y="162.5" as="sourcePoint"/>
                        <mxPoint x="1122.5" y="82.5" as="targetPoint"/>
                    </mxGeometry>
                </mxCell>
                <mxCell id="167" value="&lt;font style=&quot;font-size: 18px&quot;&gt;シートベルトを締める&lt;/font&gt;" style="text;html=1;strokeColor=none;fillColor=none;align=center;verticalAlign=middle;whiteSpace=wrap;rounded=0;" parent="1" vertex="1">
                    <mxGeometry x="700" y="80" width="140" height="30" as="geometry"/>
                </mxCell>
                <mxCell id="168" value="" style="edgeStyle=orthogonalEdgeStyle;html=1;exitX=1;exitY=0.75;exitDx=0;exitDy=0;entryX=0;entryY=0.5;entryDx=0;entryDy=0;startArrow=classic;startFill=1;endArrow=none;endFill=0;curved=1;" parent="1" source="34" target="167" edge="1">
                    <mxGeometry relative="1" as="geometry">
                        <mxPoint x="-225" y="225" as="sourcePoint"/>
                        <mxPoint x="195" y="-100" as="targetPoint"/>
                    </mxGeometry>
                </mxCell>
                <mxCell id="174" value="&lt;font style=&quot;font-size: 18px&quot;&gt;シートベルトを外す&lt;/font&gt;" style="text;html=1;strokeColor=none;fillColor=none;align=center;verticalAlign=middle;whiteSpace=wrap;rounded=0;" parent="1" vertex="1">
                    <mxGeometry x="692.5" y="30" width="135" height="30" as="geometry"/>
                </mxCell>
                <mxCell id="175" value="" style="edgeStyle=orthogonalEdgeStyle;html=1;exitX=0;exitY=0.25;exitDx=0;exitDy=0;entryX=1;entryY=0.5;entryDx=0;entryDy=0;startArrow=classic;startFill=1;endArrow=none;endFill=0;curved=1;" parent="1" source="44" target="174" edge="1">
                    <mxGeometry relative="1" as="geometry">
                        <mxPoint x="875" y="-190" as="sourcePoint"/>
                        <mxPoint x="670" y="-19.999999999999773" as="targetPoint"/>
                    </mxGeometry>
                </mxCell>
                <mxCell id="177" value="【仕様】&lt;br&gt;&lt;span id=&quot;docs-internal-guid-0124c732-7fff-611c-7b6e-a12b2aeba326&quot;&gt;&lt;ul style=&quot;margin-top: 0 ; margin-bottom: 0&quot;&gt;&lt;li dir=&quot;ltr&quot; style=&quot;list-style-type: disc ; font-size: 10pt ; color: rgb(66 , 66 , 66) ; background-color: transparent ; vertical-align: baseline&quot;&gt;&lt;p dir=&quot;ltr&quot; style=&quot;line-height: 1.2 ; margin-top: 10pt ; margin-bottom: 0pt&quot;&gt;&lt;span style=&quot;font-size: 10pt ; background-color: transparent ; font-weight: 700 ; vertical-align: baseline&quot;&gt;後部座席のドアを閉めたとき&lt;/span&gt;&lt;span style=&quot;font-size: 10pt ; background-color: transparent ; vertical-align: baseline&quot;&gt;に今の状態をリセット&lt;/span&gt;&lt;/p&gt;&lt;/li&gt;&lt;ul style=&quot;margin-top: 0 ; margin-bottom: 0&quot;&gt;&lt;li dir=&quot;ltr&quot; style=&quot;list-style-type: circle ; font-size: 10pt ; color: rgb(66 , 66 , 66) ; background-color: transparent ; vertical-align: baseline&quot;&gt;&lt;p dir=&quot;ltr&quot; style=&quot;line-height: 1.2 ; margin-top: 0pt ; margin-bottom: 0pt&quot;&gt;&lt;span style=&quot;font-size: 10pt ; background-color: transparent ; vertical-align: baseline&quot;&gt;後部座席のドアが開いたのちに閉まった→人が乗ったと仮定する&lt;/span&gt;&lt;/p&gt;&lt;/li&gt;&lt;li dir=&quot;ltr&quot; style=&quot;list-style-type: circle ; font-size: 10pt ; color: rgb(66 , 66 , 66) ; background-color: transparent ; vertical-align: baseline&quot;&gt;&lt;p dir=&quot;ltr&quot; style=&quot;line-height: 1.2 ; margin-top: 0pt ; margin-bottom: 0pt&quot;&gt;&lt;span style=&quot;font-size: 10pt ; background-color: transparent ; vertical-align: baseline&quot;&gt;重さセンサー（20kg以上だと人が載ったと仮定するとか）は、車体価格の都合上搭載しない&lt;/span&gt;&lt;/p&gt;&lt;/li&gt;&lt;li dir=&quot;ltr&quot; style=&quot;list-style-type: circle ; font-size: 10pt ; color: rgb(66 , 66 , 66) ; background-color: transparent ; vertical-align: baseline&quot;&gt;&lt;p dir=&quot;ltr&quot; style=&quot;line-height: 1.2 ; margin-top: 0pt ; margin-bottom: 0pt&quot;&gt;&lt;span style=&quot;font-size: 10pt ; background-color: transparent ; vertical-align: baseline&quot;&gt;なので、荷物を後部座席に置いた場合でもシートベルトは閉めなければ警告音・警告灯が作動してしまう&lt;/span&gt;&lt;/p&gt;&lt;/li&gt;&lt;/ul&gt;&lt;li dir=&quot;ltr&quot; style=&quot;list-style-type: disc ; font-size: 10pt ; color: rgb(66 , 66 , 66) ; background-color: transparent ; vertical-align: baseline&quot;&gt;&lt;p dir=&quot;ltr&quot; style=&quot;line-height: 1.2 ; margin-top: 0pt ; margin-bottom: 0pt&quot;&gt;&lt;span style=&quot;font-size: 10pt ; background-color: transparent ; vertical-align: baseline&quot;&gt;警告灯&lt;/span&gt;&lt;/p&gt;&lt;/li&gt;&lt;ul style=&quot;margin-top: 0 ; margin-bottom: 0&quot;&gt;&lt;li dir=&quot;ltr&quot; style=&quot;list-style-type: circle ; font-size: 10pt ; color: rgb(66 , 66 , 66) ; background-color: transparent ; vertical-align: baseline&quot;&gt;&lt;p dir=&quot;ltr&quot; style=&quot;line-height: 1.2 ; margin-top: 0pt ; margin-bottom: 0pt&quot;&gt;&lt;span style=&quot;font-size: 10pt ; background-color: transparent ; vertical-align: baseline&quot;&gt;参考URL&lt;/span&gt;&lt;/p&gt;&lt;/li&gt;&lt;ul style=&quot;margin-top: 0 ; margin-bottom: 0&quot;&gt;&lt;li dir=&quot;ltr&quot; style=&quot;list-style-type: square ; font-size: 10pt ; color: rgb(66 , 66 , 66) ; background-color: transparent ; vertical-align: baseline&quot;&gt;&lt;p dir=&quot;ltr&quot; style=&quot;line-height: 1.2 ; margin-top: 0pt ; margin-bottom: 0pt&quot;&gt;&lt;a href=&quot;https://www2.mazda.co.jp/service/ownersmanual/atenza/qsi/20202.html&quot;&gt;&lt;span style=&quot;font-size: 10pt ; color: rgb(17 , 85 , 204) ; background-color: transparent ; vertical-align: baseline&quot;&gt;3点式シートベルト&lt;/span&gt;&lt;/a&gt;&lt;/p&gt;&lt;/li&gt;&lt;/ul&gt;&lt;li dir=&quot;ltr&quot; style=&quot;list-style-type: circle ; font-size: 10pt ; color: rgb(66 , 66 , 66) ; background-color: transparent ; vertical-align: baseline&quot;&gt;&lt;p dir=&quot;ltr&quot; style=&quot;line-height: 1.2 ; margin-top: 0pt ; margin-bottom: 0pt&quot;&gt;&lt;span style=&quot;font-size: 10pt ; background-color: transparent ; vertical-align: baseline&quot;&gt;点灯：電源ポジションがONの位置のとき、後部座席シートベルトを着用していない状態で車速が約20km/h以上のまま3秒経過したとき&lt;/span&gt;&lt;/p&gt;&lt;/li&gt;&lt;li dir=&quot;ltr&quot; style=&quot;list-style-type: circle ; font-size: 10pt ; color: rgb(66 , 66 , 66) ; background-color: transparent ; vertical-align: baseline&quot;&gt;&lt;p dir=&quot;ltr&quot; style=&quot;line-height: 1.2 ; margin-top: 0pt ; margin-bottom: 0pt&quot;&gt;&lt;span style=&quot;background-color: transparent ; font-size: 10pt&quot;&gt;消灯：電源ポジションがONの位置のとき、後部座席シートベルトを着用していない状態で車速が約20km/h以下のまま3秒経過したとき&lt;/span&gt;&lt;/p&gt;&lt;/li&gt;&lt;/ul&gt;&lt;/ul&gt;&lt;/span&gt;" style="text;html=1;strokeColor=none;fillColor=none;align=left;verticalAlign=middle;whiteSpace=wrap;rounded=0;" parent="1" vertex="1">
                    <mxGeometry x="1280" y="-660" width="460" height="395" as="geometry"/>
                </mxCell>
                <mxCell id="178" value="&lt;div&gt;&lt;font style=&quot;font-size: 18px&quot;&gt;&lt;br&gt;&lt;/font&gt;&lt;/div&gt;&lt;font size=&quot;3&quot;&gt;【&lt;/font&gt;&lt;span style=&quot;font-size: medium&quot;&gt;参考資料&lt;/span&gt;&lt;font size=&quot;3&quot;&gt;】&lt;br&gt;・国土交通省_すべての座席でシートベルトを着用しましょう！（https://www.mlit.go.jp/common/001189693.pdf）&lt;br&gt;・マツダ_3点式シートベルト（https://www2.mazda.co.jp/service/ownersmanual/atenza/qsi/20202.html）&lt;br&gt;&lt;br&gt;【乗降状態の検知】&lt;br&gt;・重さセンサ&lt;br&gt;価格の観点から後部座席の重さセンサは排除&lt;br&gt;&lt;br&gt;・ドアを閉めた時に乗車、再度ドアを閉めた時に降車&lt;br&gt;エンジンをかけていない時にドアを閉めた回数を判断するのは困難&lt;br&gt;&lt;br&gt;・エンジンON時に乗車、エンジンOFF時に降車とする&lt;br&gt;シートベルトをすり抜けて降りる、車速が20km/h以上の時に人が降りないという前提が必要。&lt;br&gt;&lt;br&gt;・シートベルト着用時に乗車、外したときに降車とする&lt;br&gt;シートベルト非着用時に警告が出せない上、外したときに降車とみなすと外した際に警告が出せない&lt;br&gt;&lt;br&gt;&lt;span&gt;&lt;font&gt;【LEDのON・OFF】&lt;br&gt;&lt;/font&gt;&lt;/span&gt;・エンジンがONかつ、シートベルト非着用時&lt;br&gt;・走行時（車速が20km/h以上の時）に着用中のシートベルトが外されてから、3秒経ったときにLEDをON（速度の基準は参考資料から）&lt;br&gt;・シートベルトを着用すると、LEDをOFF&lt;/font&gt;" style="text;html=1;strokeColor=none;fillColor=none;align=left;verticalAlign=middle;whiteSpace=wrap;rounded=0;" parent="1" vertex="1">
                    <mxGeometry x="1335" y="310" width="555" height="580" as="geometry"/>
                </mxCell>
            </root>
        </mxGraphModel>
    </diagram>
</mxfile>